<svg width="314" height="168" viewBox="0 0 314 168" fill="none" xmlns="http://www.w3.org/2000/svg">
<path d="M20.6281 132.188V150H17.0188V135.469H9.05V150H5.44063V132.188H20.6281ZM36.6044 147.094H37.1669V150C36.9325 150.047 36.5575 150.094 35.9481 150.094C34.2138 150.094 33.3231 149.438 33.0888 147.938C32.0575 149.344 30.2294 150.234 28.1669 150.234C25.4481 150.234 23.5731 148.594 23.5731 146.109C23.5731 142.547 26.9481 141.844 29.62 141.516C31.4481 141.281 32.62 141.047 32.62 140.109C32.62 139.125 31.5888 138.469 29.9013 138.469C28.4013 138.469 26.995 139.078 25.9169 140.203L23.9013 138.094C25.5419 136.547 27.6044 135.703 30.0888 135.703C33.6513 135.703 35.7606 137.484 35.7606 140.391V146.25C35.7606 146.812 36.0419 147.094 36.6044 147.094ZM28.87 147.562C30.8856 147.562 32.5263 146.203 32.5263 144.562V143.109C31.9638 143.438 31.1669 143.578 29.995 143.766C28.4013 144.047 26.8544 144.281 26.8544 145.828C26.8544 146.906 27.6044 147.562 28.87 147.562ZM49.1119 135.938H52.4869V150H49.1119V144.375H43.0181V150H39.6431V135.938H43.0181V141.281H49.1119V135.938ZM58.4788 144.047C58.8069 146.156 60.2131 147.422 62.4163 147.422C64.2444 147.422 65.5569 146.719 66.4006 145.734L68.51 147.75C67.1975 149.203 65.2288 150.234 62.4163 150.234C57.5881 150.234 55.1038 147.141 55.1038 142.969C55.1038 138.656 57.9163 135.703 62.1819 135.703C66.3538 135.703 69.0725 138.562 69.0725 142.969C69.0725 143.297 69.0725 143.531 68.9788 144.047H58.4788ZM62.1819 138.422C60.2131 138.422 58.9006 139.594 58.5256 141.562H65.6506C65.2756 139.547 64.01 138.422 62.1819 138.422ZM83.7831 135.938V150H80.4081V138.984H75.3456V143.484C75.3456 148.5 74.2206 150.094 71.2206 150.094C70.705 150.094 70.1425 150.047 69.7675 150V146.953H70.5644C71.6894 146.953 72.0175 146.531 72.0175 143.109V135.938H83.7831ZM94.3219 140.906C97.6031 140.906 99.6188 142.641 99.6188 145.453C99.6188 148.266 97.5563 150 94.3219 150H87.4313V135.938H90.8063V140.906H94.3219ZM93.8531 147.328C95.3531 147.328 96.1969 146.672 96.1969 145.406C96.1969 144.188 95.3531 143.531 93.8531 143.531H90.8063V147.328H93.8531ZM120.978 147.094H121.54V150C121.306 150.047 120.931 150.094 120.321 150.094C118.587 150.094 117.696 149.438 117.462 147.938C116.431 149.344 114.603 150.234 112.54 150.234C109.821 150.234 107.946 148.594 107.946 146.109C107.946 142.547 111.321 141.844 113.993 141.516C115.821 141.281 116.993 141.047 116.993 140.109C116.993 139.125 115.962 138.469 114.274 138.469C112.774 138.469 111.368 139.078 110.29 140.203L108.274 138.094C109.915 136.547 111.978 135.703 114.462 135.703C118.024 135.703 120.134 137.484 120.134 140.391V146.25C120.134 146.812 120.415 147.094 120.978 147.094ZM113.243 147.562C115.259 147.562 116.899 146.203 116.899 144.562V143.109C116.337 143.438 115.54 143.578 114.368 143.766C112.774 144.047 111.228 144.281 111.228 145.828C111.228 146.906 111.978 147.562 113.243 147.562ZM136.766 146.953H138.641V153.281H135.407V150H125.985V153.281H122.751V146.953H124.438C124.673 145.875 124.766 144.188 124.766 141.797V135.938H136.766V146.953ZM127.719 147.047H133.438V138.891H128.048V141.938C128.048 143.953 127.954 145.688 127.719 147.047ZM158.414 135.938V150H155.18V139.688L151.43 150H148.055L144.305 139.688V150H141.024V135.938H146.086L149.789 146.156L153.446 135.938H158.414ZM162.156 134.062V131.062H165.812V134.062H162.156ZM162.297 150V135.938H165.672V150H162.297ZM179.023 135.938H182.398V150H179.023V144.375H172.929V150H169.554V135.938H172.929V141.281H179.023V135.938ZM186.093 134.062V131.062H189.749V134.062H186.093ZM186.234 150V135.938H189.609V150H186.234ZM199.679 150.234C195.413 150.234 192.507 147.328 192.507 142.969C192.507 138.609 195.413 135.703 199.679 135.703C202.819 135.703 205.304 137.25 206.054 139.922L202.866 140.906C202.351 139.406 201.226 138.516 199.632 138.516C197.382 138.516 195.976 140.25 195.976 142.969C195.976 145.688 197.382 147.422 199.632 147.422C201.226 147.422 202.398 146.531 202.913 145.031L206.054 146.016C205.304 148.688 202.819 150.234 199.679 150.234ZM219.733 135.938V138.984H214.811V150H211.436V138.984H206.467V135.938H219.733ZM229.663 135.703C233.319 135.703 235.709 138.562 235.709 142.969C235.709 147.328 233.225 150.234 229.663 150.234C227.788 150.234 226.241 149.531 225.163 148.219V154.688H221.788V135.938H224.788L224.975 138.047C226.053 136.547 227.694 135.703 229.663 135.703ZM228.631 147.422C230.881 147.422 232.288 145.688 232.288 142.969C232.288 140.25 230.881 138.516 228.631 138.516C226.381 138.516 225.022 140.25 225.022 142.969C225.022 145.688 226.381 147.422 228.631 147.422ZM249.951 147.094H250.514V150C250.279 150.047 249.904 150.094 249.295 150.094C247.561 150.094 246.67 149.438 246.436 147.938C245.404 149.344 243.576 150.234 241.514 150.234C238.795 150.234 236.92 148.594 236.92 146.109C236.92 142.547 240.295 141.844 242.967 141.516C244.795 141.281 245.967 141.047 245.967 140.109C245.967 139.125 244.936 138.469 243.248 138.469C241.748 138.469 240.342 139.078 239.264 140.203L237.248 138.094C238.889 136.547 240.951 135.703 243.436 135.703C246.998 135.703 249.107 137.484 249.107 140.391V146.25C249.107 146.812 249.389 147.094 249.951 147.094ZM242.217 147.562C244.232 147.562 245.873 146.203 245.873 144.562V143.109C245.311 143.438 244.514 143.578 243.342 143.766C241.748 144.047 240.201 144.281 240.201 145.828C240.201 146.906 240.951 147.562 242.217 147.562ZM263.912 135.938V138.984H258.99V150H255.615V138.984H250.646V135.938H263.912ZM271.544 150.234C267.138 150.234 264.279 147.375 264.279 142.969C264.279 138.609 267.232 135.703 271.544 135.703C275.951 135.703 278.81 138.562 278.81 142.969C278.81 147.328 275.857 150.234 271.544 150.234ZM271.544 147.422C273.888 147.422 275.341 145.734 275.341 142.969C275.341 140.203 273.888 138.516 271.544 138.516C269.201 138.516 267.747 140.203 267.747 142.969C267.747 145.734 269.201 147.422 271.544 147.422ZM289.302 135.703C292.958 135.703 295.349 138.562 295.349 142.969C295.349 147.328 292.864 150.234 289.302 150.234C287.427 150.234 285.88 149.531 284.802 148.219V154.688H281.427V135.938H284.427L284.614 138.047C285.693 136.547 287.333 135.703 289.302 135.703ZM288.271 147.422C290.521 147.422 291.927 145.688 291.927 142.969C291.927 140.25 290.521 138.516 288.271 138.516C286.021 138.516 284.661 140.25 284.661 142.969C284.661 145.688 286.021 147.422 288.271 147.422ZM309.591 147.094H310.153V150C309.919 150.047 309.544 150.094 308.934 150.094C307.2 150.094 306.309 149.438 306.075 147.938C305.044 149.344 303.216 150.234 301.153 150.234C298.434 150.234 296.559 148.594 296.559 146.109C296.559 142.547 299.934 141.844 302.606 141.516C304.434 141.281 305.606 141.047 305.606 140.109C305.606 139.125 304.575 138.469 302.888 138.469C301.388 138.469 299.981 139.078 298.903 140.203L296.888 138.094C298.528 136.547 300.591 135.703 303.075 135.703C306.638 135.703 308.747 137.484 308.747 140.391V146.25C308.747 146.812 309.028 147.094 309.591 147.094ZM301.856 147.562C303.872 147.562 305.513 146.203 305.513 144.562V143.109C304.95 143.438 304.153 143.578 302.981 143.766C301.388 144.047 299.841 144.281 299.841 145.828C299.841 146.906 300.591 147.562 301.856 147.562Z" fill="black"/>
<path d="M117.47 0H199.05C201.652 0.0022682 204.227 0.517469 206.629 1.51613C209.032 2.51479 211.214 3.9773 213.05 5.82L213.37 6.17C216.892 9.84633 218.862 14.7387 218.87 19.83V103.05C218.849 108.303 216.753 113.334 213.039 117.049C209.324 120.763 204.293 122.859 199.04 122.88H115.83C110.577 122.859 105.546 120.763 101.831 117.049C98.1171 113.334 96.0211 108.303 96 103.05V21.47C96.0237 15.7831 98.2933 10.3359 102.315 6.31459C106.336 2.29331 111.783 0.0236902 117.47 0ZM179.11 47H166.29V90H148.6V47H135.78V32.84H179.11V47ZM199.05 10.12H117.47C114.46 10.1226 111.573 11.319 109.444 13.4467C107.314 15.5743 106.115 18.4597 106.11 21.47V103.05C106.123 105.624 107.151 108.089 108.971 109.909C110.791 111.729 113.256 112.757 115.83 112.77H199.05C201.627 112.767 204.098 111.742 205.92 109.92C207.742 108.098 208.767 105.627 208.77 103.05V19.83C208.769 17.3647 207.833 14.9915 206.15 13.19L205.91 12.97C205.011 12.0653 203.942 11.3469 202.765 10.8561C201.588 10.3654 200.325 10.1118 199.05 10.11V10.12Z" fill="black"/>
</svg>
