<svg width="160" height="160" viewBox="0 0 160 160" fill="none" xmlns="http://www.w3.org/2000/svg">
<path d="M26.8482 130.525C28.2096 130.99 28.9732 131.986 28.9732 133.414C28.9732 135.672 26.9479 137.166 23.86 137.166C21.3365 137.166 19.3111 135.938 18.4811 134.012L20.6061 132.916C21.1373 134.178 22.3326 134.941 23.86 134.941C25.4869 134.941 26.4498 134.311 26.4498 133.148C26.4498 132.152 25.6197 131.555 24.2252 131.555H22.5318V129.529H24.2252C25.2877 129.529 26.0514 129.031 26.0514 128.102C26.0514 127.072 25.2545 126.408 23.8268 126.408C22.3658 126.408 21.3365 127.172 20.7721 128.434L18.5807 127.537C19.4107 125.512 21.4361 124.217 23.8932 124.217C26.7486 124.217 28.5748 125.645 28.5748 127.803C28.5748 129.064 27.9439 129.994 26.8482 130.525ZM39.1018 134.941H39.5003V137C39.3343 137.033 39.0686 137.066 38.637 137.066C37.4085 137.066 36.7776 136.602 36.6116 135.539C35.8811 136.535 34.5862 137.166 33.1253 137.166C31.1995 137.166 29.8714 136.004 29.8714 134.244C29.8714 131.721 32.262 131.223 34.1546 130.99C35.4495 130.824 36.2796 130.658 36.2796 129.994C36.2796 129.297 35.5491 128.832 34.3538 128.832C33.2913 128.832 32.3284 129.264 31.5315 130.061L30.1038 128.566C31.2659 127.471 32.7268 126.873 34.4866 126.873C37.01 126.873 38.5042 128.135 38.5042 130.193V134.344C38.5042 134.742 38.7034 134.941 39.1018 134.941ZM33.6233 135.273C35.0511 135.273 36.2132 134.311 36.2132 133.148V132.119C35.8147 132.352 35.2503 132.451 34.4202 132.584C33.2913 132.783 32.1956 132.949 32.1956 134.045C32.1956 134.809 32.7268 135.273 33.6233 135.273ZM47.9687 131.887C49.0644 132.252 49.6621 133.082 49.6621 134.277C49.6621 136.037 48.3007 137 46.0429 137H41.1289V127.039H45.6777C48.0019 127.039 49.3964 127.869 49.3964 129.662C49.3964 130.758 48.832 131.521 47.9687 131.887ZM43.3867 128.832V131.057H45.6777C46.6406 131.057 47.0722 130.725 47.0722 129.928C47.0722 129.23 46.6074 128.832 45.7441 128.832H43.3867ZM45.8105 135.174C46.7402 135.174 47.2714 134.709 47.2714 133.979C47.2714 133.215 46.707 132.75 45.7441 132.75H43.3867V135.174H45.8105ZM59.7575 134.941H60.1559V137C59.9899 137.033 59.7243 137.066 59.2926 137.066C58.0641 137.066 57.4332 136.602 57.2672 135.539C56.5368 136.535 55.2418 137.166 53.7809 137.166C51.8551 137.166 50.527 136.004 50.527 134.244C50.527 131.721 52.9176 131.223 54.8102 130.99C56.1051 130.824 56.9352 130.658 56.9352 129.994C56.9352 129.297 56.2047 128.832 55.0094 128.832C53.9469 128.832 52.984 129.264 52.1871 130.061L50.7594 128.566C51.9215 127.471 53.3825 126.873 55.1422 126.873C57.6657 126.873 59.1598 128.135 59.1598 130.193V134.344C59.1598 134.742 59.359 134.941 59.7575 134.941ZM54.2789 135.273C55.7067 135.273 56.8688 134.311 56.8688 133.148V132.119C56.4704 132.352 55.9059 132.451 55.0758 132.584C53.9469 132.783 52.8512 132.949 52.8512 134.045C52.8512 134.809 53.3825 135.273 54.2789 135.273ZM68.4915 127.039H70.8821V137H68.4915V133.016H64.1751V137H61.7845V127.039H64.1751V130.824H68.4915V127.039ZM81.6084 127.039V129.197H78.1221V137H75.7314V129.197H72.2119V127.039H81.6084ZM91.1061 134.941H91.5046V137C91.3386 137.033 91.0729 137.066 90.6413 137.066C89.4128 137.066 88.7819 136.602 88.6159 135.539C87.8854 136.535 86.5905 137.166 85.1296 137.166C83.2038 137.166 81.8757 136.004 81.8757 134.244C81.8757 131.721 84.2663 131.223 86.1589 130.99C87.4538 130.824 88.2839 130.658 88.2839 129.994C88.2839 129.297 87.5534 128.832 86.3581 128.832C85.2956 128.832 84.3327 129.264 83.5358 130.061L82.1081 128.566C83.2702 127.471 84.7311 126.873 86.4909 126.873C89.0143 126.873 90.5085 128.135 90.5085 130.193V134.344C90.5085 134.742 90.7077 134.941 91.1061 134.941ZM85.6276 135.273C87.0554 135.273 88.2175 134.311 88.2175 133.148V132.119C87.819 132.352 87.2546 132.451 86.4245 132.584C85.2956 132.783 84.1999 132.949 84.1999 134.045C84.1999 134.809 84.7311 135.273 85.6276 135.273ZM105.186 137L102.397 132.584L101.135 133.912V137H98.7445V133.846L97.4828 132.551L94.6937 137H91.8714L95.7562 130.99L91.9711 127.039H94.9593L98.7445 131.256V127.039H101.135V131.256L104.92 127.039H107.909L104.157 130.99L108.041 137H105.186ZM115.945 127.039H118.336V137H116.012V130.426L111.596 137H109.205V127.039H111.563V133.613L115.945 127.039ZM129.095 127.039V129.197H125.609V137H123.218V129.197H119.699V127.039H129.095ZM137.165 127.039H139.556V137H137.232V130.426L132.816 137H130.425V127.039H132.783V133.613L137.165 127.039Z" fill="black"/>
<g clip-path="url(#clip0_16_2)">
<path d="M60.233 27.381C65.7301 22.6407 72.7413 20.0228 80 20C94.795 20 107.076 31 108.413 45.1845C117.169 46.422 124 53.7535 124 62.7515C124 72.6295 115.761 80.5 105.779 80.5H91C90.2707 80.5 89.5712 80.2103 89.0555 79.6945C88.5397 79.1788 88.25 78.4793 88.25 77.75C88.25 77.0207 88.5397 76.3212 89.0555 75.8055C89.5712 75.2897 90.2707 75 91 75H105.784C112.884 75 118.5 69.434 118.5 62.7515C118.5 56.0635 112.89 50.4975 105.779 50.4975H103.029V47.7475C103.034 35.5375 92.804 25.5 80 25.5C74.0593 25.5237 68.3226 27.6694 63.8245 31.55C59.661 35.136 57.483 39.459 57.483 42.8525V45.3165L55.0355 45.586C47.352 46.4275 41.5 52.736 41.5 60.249C41.5 68.3175 48.265 75 56.7955 75H69C69.7293 75 70.4288 75.2897 70.9445 75.8055C71.4603 76.3212 71.75 77.0207 71.75 77.75C71.75 78.4793 71.4603 79.1788 70.9445 79.6945C70.4288 80.2103 69.7293 80.5 69 80.5H56.7955C45.394 80.5 36 71.513 36 60.249C36 50.5525 42.963 42.5225 52.181 40.4875C52.9675 35.741 56.02 31.011 60.233 27.381Z" fill="black"/>
<path d="M78.053 107.197C78.3085 107.453 78.6119 107.656 78.946 107.795C79.2801 107.934 79.6383 108.005 80 108.005C80.3617 108.005 80.7199 107.934 81.054 107.795C81.3881 107.656 81.6915 107.453 81.947 107.197L98.447 90.697C98.9634 90.1806 99.2535 89.4803 99.2535 88.75C99.2535 88.0197 98.9634 87.3194 98.447 86.803C97.9306 86.2866 97.2303 85.9965 96.5 85.9965C95.7697 85.9965 95.0694 86.2866 94.553 86.803L82.75 98.6115V50.25C82.75 49.5207 82.4603 48.8212 81.9445 48.3055C81.4288 47.7897 80.7293 47.5 80 47.5C79.2707 47.5 78.5712 47.7897 78.0555 48.3055C77.5397 48.8212 77.25 49.5207 77.25 50.25V98.6115L65.447 86.803C64.9306 86.2866 64.2303 85.9965 63.5 85.9965C62.7697 85.9965 62.0694 86.2866 61.553 86.803C61.0366 87.3194 60.7465 88.0197 60.7465 88.75C60.7465 89.4803 61.0366 90.1806 61.553 90.697L78.053 107.197Z" fill="black"/>
</g>
<rect x="1" y="1" width="158" height="158" rx="19" stroke="black" stroke-width="2" stroke-linejoin="round" stroke-dasharray="4 4"/>
<defs>
<clipPath id="clip0_16_2">
<rect width="88" height="88" fill="white" transform="translate(36 20)"/>
</clipPath>
</defs>
</svg>
